<svg xmlns="http://www.w3.org/2000/svg" viewBox="0 0 74 41.47"><title>Asset 9</title><g id="Layer_2" data-name="Layer 2"><g id="Layer_1-2" data-name="Layer 1"><rect x="37.81" y="3.1" width="2.22" height="13.3" rx="1.11" ry="1.11" style="fill:#506784"/><rect x="61.09" y="3.1" width="2.22" height="13.3" rx="1.11" ry="1.11" style="fill:#506784"/><path d="M31.17,5.31a4.19,4.19,0,0,0-2.3.69,1.11,1.11,0,0,0-2.13.42V17.5a1.11,1.11,0,1,0,2.22,0V15.76a4.19,4.19,0,0,0,2.22.64,4.6,4.6,0,0,0,4.43-4.75V10.06A4.6,4.6,0,0,0,31.17,5.31Zm2.22,6.45a2.22,2.22,0,1,1-4.43,0V9.95a2.22,2.22,0,1,1,4.43,0Z" style="fill:#506784"/><path d="M46.68,5.31h0a4.6,4.6,0,0,0-4.43,4.75v1.58a4.6,4.6,0,0,0,4.43,4.75h0a4.6,4.6,0,0,0,4.43-4.75V10.06A4.6,4.6,0,0,0,46.68,5.31Zm2.22,6.45a2.22,2.22,0,1,1-4.43,0V9.95a2.22,2.22,0,1,1,4.43,0Z" style="fill:#506784"/><path d="M57.76,14.18A2.22,2.22,0,0,1,55.55,12V7.53h2.22a1.11,1.11,0,1,0,0-2.22H55.55V4.21a1.11,1.11,0,1,0-2.22,0V12a4.44,4.44,0,0,0,4.43,4.43,1.11,1.11,0,1,0,0-2.22Z" style="fill:#506784"/><path d="M73.33,5.4A1.11,1.11,0,0,0,71.87,6l-2.3,5.36L67.28,6a1.11,1.11,0,1,0-2,.87l3.13,7.3L68,15a2.22,2.22,0,0,1-2,1.37,1.11,1.11,0,0,0,0,2.22h0a4.43,4.43,0,0,0,4-2.72l3.87-9A1.11,1.11,0,0,0,73.33,5.4Z" style="fill:#506784"/><rect width="21.2" height="21.2" rx="0.96" ry="0.96" style="fill:#119dff"/><circle cx="12.53" cy="8.67" r="0.96" style="fill:#25fefd"/><circle cx="16.38" cy="4.82" r="0.96" style="fill:#25fefd"/><circle cx="12.53" cy="4.82" r="0.96" style="fill:#25fefd"/><circle cx="8.67" cy="4.82" r="0.96" style="fill:#25fefd"/><circle cx="4.82" cy="4.82" r="0.96" style="fill:#25fefd"/><circle cx="4.82" cy="8.67" r="0.96" style="fill:#25fefd"/><path d="M4.82,11.57a1,1,0,0,0-1,1v3.86a1,1,0,0,0,1.93,0V12.53A1,1,0,0,0,4.82,11.57Z" style="fill:#fff"/><path d="M12.53,11.57a1,1,0,0,0-1,1v3.86a1,1,0,0,0,1.93,0V12.53A1,1,0,0,0,12.53,11.57Z" style="fill:#fff"/><path d="M8.67,7.71a1,1,0,0,0-1,1v7.71a1,1,0,0,0,1.93,0V8.67A1,1,0,0,0,8.67,7.71Z" style="fill:#fff"/><path d="M16.38,7.71a1,1,0,0,0-1,1v7.71a1,1,0,0,0,1.93,0V8.67A1,1,0,0,0,16.38,7.71Z" style="fill:#fff"/><path d="M2.14,40.29a5.33,5.33,0,0,1-1.07-3.66q0-4.84,4.41-4.84a5.72,5.72,0,0,1,1.29.14,3.83,3.83,0,0,1,1,.35c.22.13.33.25.33.35a1.07,1.07,0,0,1-.17.49q-.17.3-.29.3a1.69,1.69,0,0,1-.35-.17,3.62,3.62,0,0,0-1.76-.43,3,3,0,0,0-2.42.91,4.45,4.45,0,0,0-.78,2.91,4.43,4.43,0,0,0,.77,2.88,2.92,2.92,0,0,0,2.37.92,3.68,3.68,0,0,0,1.14-.16,5.92,5.92,0,0,0,.94-.4.65.65,0,0,1,.26-.12c.08,0,.18.1.3.3a1,1,0,0,1,.18.43c0,.14-.14.28-.43.45a4,4,0,0,1-1,.38,5.79,5.79,0,0,1-1.35.15A4.26,4.26,0,0,1,2.14,40.29Z" style="fill:#506784"/><path d="M10,41.11V31.46q0-.3.54-.3h.05q.54,0,.54.3v3.67a3.58,3.58,0,0,1,.95-.67,2.53,2.53,0,0,1,1.14-.27,2.47,2.47,0,0,1,1.51.48,2,2,0,0,1,.65,1.72v4.72q0,.3-.54.3h-.05q-.54,0-.54-.3V36.5a1.31,1.31,0,0,0-.35-1,1.4,1.4,0,0,0-1-.35,1.68,1.68,0,0,0-.83.21,2.83,2.83,0,0,0-.63.46,1.56,1.56,0,0,0-.25.28v5q0,.3-.54.3h-.05Q10,41.41,10,41.11Z" style="fill:#506784"/><path d="M17.7,40.95a1.84,1.84,0,0,1-.64-1.52,2,2,0,0,1,.65-1.61,3.27,3.27,0,0,1,1.58-.69A15.13,15.13,0,0,1,21.58,37v-.64a1.06,1.06,0,0,0-.35-.82,1.68,1.68,0,0,0-1.14-.32,3.42,3.42,0,0,0-1,.14,5.94,5.94,0,0,0-.75.28l-.33.14c-.09,0-.19-.09-.31-.27a.9.9,0,0,1-.17-.41q0-.18.36-.38a3.73,3.73,0,0,1,1-.35A5.25,5.25,0,0,1,20,34.19a3.08,3.08,0,0,1,2,.56,1.9,1.9,0,0,1,.71,1.57v3a7.09,7.09,0,0,0,.08,1.28c.05.26.08.4.08.43s-.09.19-.26.24a1.7,1.7,0,0,1-.48.08.29.29,0,0,1-.28-.21,2.38,2.38,0,0,1-.14-.44l-.06-.3a3,3,0,0,1-2.28,1A2.6,2.6,0,0,1,17.7,40.95Zm2.89-.72a4.62,4.62,0,0,0,1-.69V37.93c-.68,0-1.24,0-1.66.08a2.58,2.58,0,0,0-1.14.38,1.06,1.06,0,0,0-.49,1,1.1,1.1,0,0,0,.29.83,1.18,1.18,0,0,0,.86.29A2.52,2.52,0,0,0,20.59,40.23Z" style="fill:#506784"/><path d="M25,41.11V36.34A6.93,6.93,0,0,0,25,35.05c-.05-.26-.08-.4-.08-.43s.09-.19.26-.24a1.75,1.75,0,0,1,.48-.07.29.29,0,0,1,.28.2,2.14,2.14,0,0,1,.14.42l.06.28a2,2,0,0,1,1.58-1,1,1,0,0,1,.59.15.45.45,0,0,1,.2.38,1.58,1.58,0,0,1-.08.48c-.05.17-.12.25-.19.25a1,1,0,0,1-.27-.07,1.35,1.35,0,0,0-.48-.08,1.06,1.06,0,0,0-.59.18,2.29,2.29,0,0,0-.47.4,1.16,1.16,0,0,0-.19.25v5c0,.2-.18.3-.54.3h-.05C25.21,41.41,25,41.31,25,41.11Z" style="fill:#506784"/><path d="M30.78,41.05a1.74,1.74,0,0,1-.54-1.46V35.25h-.68a.24.24,0,0,1-.2-.09.55.55,0,0,1-.07-.31v-.16a.55.55,0,0,1,.07-.31.24.24,0,0,1,.2-.09h.68l.16-1.43c0-.2.17-.3.43-.3H31q.41,0,.41.3v1.43h1.14a.23.23,0,0,1,.21.09.6.6,0,0,1,.06.31v.16a.6.6,0,0,1-.06.31.23.23,0,0,1-.21.09H31.38v4.23a1.18,1.18,0,0,0,.2.79.69.69,0,0,0,.54.22,1.65,1.65,0,0,0,.39,0l.2,0q.12,0,.2.25a1.38,1.38,0,0,1,.08.39q0,.41-1,.41A1.94,1.94,0,0,1,30.78,41.05Z" style="fill:#506784"/><path d="M38.51,41.28a3.06,3.06,0,0,1-1-.46c-.17-.13-.26-.24-.26-.34a.94.94,0,0,1,.18-.45c.12-.19.22-.28.29-.28a1,1,0,0,1,.29.14,5.68,5.68,0,0,0,.9.39,3.6,3.6,0,0,0,1.15.16A1.86,1.86,0,0,0,41.3,40a1.48,1.48,0,0,0,.5-1.16,1.29,1.29,0,0,0-.27-.84,2,2,0,0,0-.66-.53c-.26-.13-.63-.29-1.12-.48a10.82,10.82,0,0,1-1.25-.57,2.24,2.24,0,0,1-.79-.77,2.46,2.46,0,0,1-.33-1.34,2.33,2.33,0,0,1,.37-1.3,2.47,2.47,0,0,1,1.06-.89,3.7,3.7,0,0,1,1.58-.32,4.77,4.77,0,0,1,1,.13,2.54,2.54,0,0,1,.88.35c.18.11.27.23.27.35a1,1,0,0,1-.17.43c-.11.19-.2.29-.27.29a.49.49,0,0,1-.2-.07l-.17-.09a3,3,0,0,0-1.41-.35,1.91,1.91,0,0,0-1.27.41,1.4,1.4,0,0,0-.48,1.13,1.12,1.12,0,0,0,.24.75,1.56,1.56,0,0,0,.54.43q.31.14,1.07.44a10.21,10.21,0,0,1,1.33.61A2.44,2.44,0,0,1,43,38.83a2.42,2.42,0,0,1-.82,1.93,3.25,3.25,0,0,1-2.2.71A5.72,5.72,0,0,1,38.51,41.28Z" style="fill:#506784"/><path d="M45.49,41.05A1.74,1.74,0,0,1,45,39.59V35.25h-.68a.24.24,0,0,1-.2-.09.55.55,0,0,1-.07-.31v-.16a.55.55,0,0,1,.07-.31.24.24,0,0,1,.2-.09H45l.16-1.43c0-.2.17-.3.43-.3h.14q.41,0,.41.3v1.43h1.14a.23.23,0,0,1,.21.09.6.6,0,0,1,.06.31v.16a.6.6,0,0,1-.06.31.23.23,0,0,1-.21.09H46.1v4.23a1.18,1.18,0,0,0,.2.79.69.69,0,0,0,.54.22,1.65,1.65,0,0,0,.39,0l.2,0q.12,0,.2.25a1.38,1.38,0,0,1,.08.39q0,.41-1,.41A1.94,1.94,0,0,1,45.49,41.05Z" style="fill:#506784"/><path d="M49.76,40.88a2.17,2.17,0,0,1-.59-1.62V34.55c0-.2.18-.3.54-.3h.05c.36,0,.54.1.54.3v4.61a1.29,1.29,0,0,0,.36,1,1.42,1.42,0,0,0,1,.35,1.84,1.84,0,0,0,.92-.26,2.67,2.67,0,0,0,.8-.69v-5c0-.2.18-.3.54-.3H54c.36,0,.54.1.54.3v4.83a6.91,6.91,0,0,0,.08,1.28c.05.26.08.4.08.43s-.09.19-.26.24a1.7,1.7,0,0,1-.48.08.29.29,0,0,1-.28-.21,2.27,2.27,0,0,1-.14-.44l-.06-.3a3.28,3.28,0,0,1-1,.75,2.57,2.57,0,0,1-1.13.27A2.21,2.21,0,0,1,49.76,40.88Z" style="fill:#506784"/><path d="M57.67,41a2.9,2.9,0,0,1-.92-1.29,5.18,5.18,0,0,1-.32-1.88,5.09,5.09,0,0,1,.35-2,2.73,2.73,0,0,1,1-1.24,2.51,2.51,0,0,1,1.44-.42,2.92,2.92,0,0,1,1.05.18,3.58,3.58,0,0,1,.89.52V31.46c0-.2.18-.3.54-.3h.06c.36,0,.54.1.54.3v7.92a7.09,7.09,0,0,0,.08,1.28c.06.26.08.4.08.43s-.09.19-.26.24a1.69,1.69,0,0,1-.47.08.3.3,0,0,1-.28-.21,2.38,2.38,0,0,1-.14-.44l-.06-.3a3,3,0,0,1-2.16,1A2.23,2.23,0,0,1,57.67,41Zm2.58-.78a3.09,3.09,0,0,0,.89-.69V35.81a2.54,2.54,0,0,0-1.67-.61,1.57,1.57,0,0,0-1.37.65,3.22,3.22,0,0,0-.46,1.88,3.92,3.92,0,0,0,.43,2,1.37,1.37,0,0,0,1.24.71A2.08,2.08,0,0,0,60.25,40.23Z" style="fill:#506784"/><path d="M64.59,32.68v-.76c0-.22.22-.33.65-.33s.6.11.6.33v.76c0,.22-.22.33-.65.33S64.59,32.9,64.59,32.68Zm.05,8.43V34.55c0-.2.18-.3.54-.3h.06c.36,0,.54.1.54.3v6.57c0,.2-.18.3-.54.3h-.06C64.83,41.41,64.64,41.31,64.64,41.11Z" style="fill:#506784"/><path d="M68.57,40.54a4,4,0,0,1-.81-2.68,4.06,4.06,0,0,1,.82-2.72,2.91,2.91,0,0,1,2.34-1,2.82,2.82,0,0,1,2.29.95,4.13,4.13,0,0,1,.8,2.73,4,4,0,0,1-.78,2.69,2.86,2.86,0,0,1-2.3.92A3,3,0,0,1,68.57,40.54Zm3.77-.7a3.4,3.4,0,0,0,.48-2,3.44,3.44,0,0,0-.48-2,1.7,1.7,0,0,0-1.47-.65,1.66,1.66,0,0,0-1.45.65,3.5,3.5,0,0,0-.46,2,3.47,3.47,0,0,0,.46,2,1.66,1.66,0,0,0,1.45.65A1.7,1.7,0,0,0,72.34,39.84Z" style="fill:#506784"/><line y1="25.45" x2="74" y2="25.45" style="fill:none;stroke:#a2b1c6;stroke-miterlimit:10;stroke-width:0.25px"/></g></g></svg>
