<svg width="700" height="350" viewBox="0 0 700 350" fill="none" xmlns="http://www.w3.org/2000/svg">
<path fill-rule="evenodd" clip-rule="evenodd" d="M88.3569 111.038C85.2788 113.459 83.3216 118.835 84.2188 122.408C85.2967 126.702 90.1063 129.995 95.2974 129.995C98.934 129.995 100.351 129.438 102.713 127.076C106.847 122.945 106.856 116.535 102.735 112.127C100.33 109.553 99.0779 109.025 95.3773 109.025C92.4181 109.025 90.0553 109.703 88.3569 111.038ZM131.726 110.654C128.592 112.848 126.493 118.157 127.255 121.964C129.334 132.354 146.235 132.761 148.167 122.469C149.045 117.792 148.019 114.315 144.911 111.437C141.787 108.543 135.292 108.157 131.726 110.654ZM174.686 110.654C171.047 113.201 169.24 118.469 170.596 122.576C172.179 127.368 175.913 129.995 181.142 129.995C188.993 129.995 193.668 122.53 190.541 114.985C188.276 109.518 179.668 107.167 174.686 110.654ZM217.646 110.654C214.512 112.848 212.413 118.157 213.174 121.964C214.631 129.242 225.29 132.702 230.995 127.748C236.09 123.324 235.194 113.457 229.427 110.476C225.716 108.558 220.528 108.635 217.646 110.654ZM374.434 130.398C373.088 131.156 371.658 132.611 371.257 133.632C370.175 136.383 370.228 212.33 371.315 215.186C373.17 220.065 382.874 220.221 384.723 215.403C385.081 214.473 385.373 195.825 385.373 173.962C385.373 137.556 385.226 134.037 383.624 132.145C381.318 129.422 377.467 128.69 374.434 130.398ZM479.784 130.126C475.338 132.61 475.289 132.982 475.289 164.023C475.289 198.672 475.687 200.888 483.456 209.384C489.023 215.472 495.746 218.759 503.301 219.088C507.898 219.288 508.754 218.993 510.939 216.455C512.75 214.35 513.238 212.908 512.789 210.989C511.909 207.236 507.739 203.89 503.938 203.89C499.208 203.89 493.759 199.745 491.833 194.681C490.532 191.261 490.265 187.321 490.491 174.932L490.774 159.453L499.972 159.167C508.521 158.9 509.314 158.698 511.211 156.286C513.879 152.898 513.788 150.7 510.842 147.277C508.584 144.651 507.86 144.453 499.353 144.126L490.275 143.777V138.993C490.275 131.69 484.987 127.219 479.784 130.126ZM533.235 129.705C532.41 130.008 530.949 130.941 529.988 131.778C528.375 133.182 528.239 136.505 528.239 174.432C528.239 214.384 528.297 215.616 530.25 217.383C533.007 219.876 537.841 219.701 540.534 217.012C542.708 214.84 542.728 214.488 543.008 174.861L543.291 134.9L540.338 131.948C537.419 129.031 536.156 128.631 533.235 129.705ZM299.816 145.122C295.668 147.172 295.457 149.341 295.457 189.822C295.457 227.526 295.513 228.657 297.528 231.217C300.122 234.514 305.469 234.825 308.444 231.851C310.062 230.234 310.443 228.523 310.443 222.864C310.443 219.019 310.681 215.873 310.974 215.873C311.267 215.873 313.177 216.58 315.22 217.443C317.355 218.346 321.828 219.02 325.738 219.029C337.408 219.057 347.605 212.255 352.739 201.017C354.454 197.263 354.916 193.978 355.211 183.419C355.527 172.076 355.306 169.727 353.455 164.799C347.457 148.826 330.238 140.578 315.017 146.389C310.806 147.996 310.159 148.023 308.638 146.654C306.298 144.547 302.363 143.863 299.816 145.122ZM424.381 145.03C414.063 147.137 404.823 156.353 401.786 167.565C399.246 176.947 400.106 193.488 403.522 200.946C406.99 208.518 411.173 212.978 417.891 216.266C432.767 223.547 450.447 216.764 457.641 201.017C459.357 197.263 459.818 193.978 460.113 183.419C460.43 172.076 460.208 169.727 458.357 164.799C453.034 150.624 438.473 142.152 424.381 145.03ZM559.71 145.158C556.925 146.787 555.282 149.114 555.254 151.465C555.241 152.563 560.119 164.878 566.094 178.83L576.958 204.198L575.18 208.166C572.446 214.271 568.192 217.944 562.658 218.977C560.022 219.469 557.043 220.615 556.039 221.522C553.529 223.794 553.608 229.993 556.177 232.318C558.917 234.796 568.115 234.043 574.573 230.812C583.522 226.336 585.561 222.928 600.976 186.699C608.776 168.367 615.158 152.573 615.158 151.602C615.158 146.445 609.265 142.859 604.525 145.134C602.187 146.255 600.441 149.5 593.729 165.195C589.325 175.494 585.489 183.912 585.204 183.903C584.919 183.894 581.113 175.562 576.746 165.387C572.378 155.212 568.33 146.493 567.748 146.011C565.814 144.407 561.733 143.973 559.71 145.158ZM88.7665 153.593C85.1269 156.14 83.3206 161.408 84.6763 165.515C86.2748 170.356 89.9854 172.934 95.3554 172.934C101.659 172.934 105.634 168.94 105.634 162.603C105.634 158.916 105.081 157.557 102.56 155.037C100.103 152.581 98.6433 151.964 95.2894 151.964C92.9806 151.964 90.0453 152.697 88.7665 153.593ZM130.716 154.861L127.613 157.758V205.366V252.975L130.534 255.894C135.568 260.926 144.212 259.52 147.478 253.137C148.252 251.623 148.594 236.841 148.594 204.855V158.754L145.197 155.359C140.637 150.802 135.262 150.617 130.716 154.861ZM174.686 153.593C171.047 156.14 169.24 161.408 170.596 165.515C172.179 170.307 175.913 172.934 181.142 172.934C188.993 172.934 193.668 165.469 190.541 157.925C188.276 152.457 179.668 150.106 174.686 153.593ZM217.199 154.006C215.77 155.131 214.138 157.714 213.573 159.748C212.943 162.017 212.543 179.97 212.54 206.169C212.534 252.019 212.704 253.725 217.646 257.184C222.406 260.516 231.013 258.41 233.32 253.348C234.19 251.441 234.513 238.384 234.513 205.246C234.513 164.602 234.337 159.462 232.85 156.947C229.782 151.755 221.936 150.281 217.199 154.006ZM331.922 161.218C338.465 164.455 340.422 169.207 340.393 181.794C340.358 197.329 335.848 203.878 325.182 203.886C321.138 203.889 319.853 203.361 316.46 200.298C311.725 196.022 310.454 192.132 310.454 181.922C310.454 172.363 311.753 167.784 315.539 164C320.228 159.313 326.068 158.321 331.922 161.218ZM437.823 161.875C439.471 162.802 441.824 165.331 443.052 167.498C444.952 170.85 445.283 172.922 445.279 181.422C445.274 189.017 444.828 192.388 443.414 195.497C441.002 200.808 436.062 203.89 429.966 203.89C426.06 203.89 424.723 203.332 421.362 200.298C416.627 196.022 415.356 192.132 415.356 181.922C415.356 172.363 416.655 167.784 420.441 164C425.499 158.944 431.338 158.23 437.823 161.875ZM87.5736 197.822L84.6533 200.741V226.858V252.975L87.5736 255.894C91.423 259.741 97.6892 259.962 102.137 256.407L105.134 254.011L105.434 228.779C105.761 201.294 105.393 198.859 100.548 196.354C95.8569 193.93 90.9075 194.49 87.5736 197.822ZM173.493 197.822L170.573 200.741V226.858V252.975L173.493 255.894C176.713 259.112 181.399 259.754 186.087 257.619C191.144 255.317 191.554 253.009 191.554 226.812C191.554 206.109 191.319 202.303 189.89 199.886C186.475 194.108 178.246 193.072 173.493 197.822Z" fill="#5E7CE2"/>
</svg>
